<?xml version="1.0" standalone="no"?>
 <!DOCTYPE svg PUBLIC "-//W3C//DTD SVG 1.1//EN" 
 "http://www.w3.org/Graphics/SVG/1.1/DTD/svg11.dtd"> 
<svg
  xmlns:svg="http://www.w3.org/2000/svg"
  xmlns="http://www.w3.org/2000/svg"
  xmlns:xlink="http://www.w3.org/1999/xlink"
  xmlns:inkscape="http://www.inkscape.org/namespaces/inkscape"
  version="1.1"
  width="19.8120mm" height="17.2466mm" viewBox="0.0000 0.0000 19.8120 17.2466">
<title>SVG Image created as BREMSLUEFTER_3-POL_unit1.svg date 2026-08-09T11:54:30 </title>
  <desc>Image generated by Eeschema-SVG </desc>
<g style="fill:#000000; fill-opacity:1.0000;stroke:#000000; stroke-opacity:1.0000;
stroke-linecap:round; stroke-linejoin:round;"
 transform="translate(0 0) scale(1 1)">
<path style="fill:none; 
stroke:#840000; stroke-width:0.2540; stroke-opacity:1; 
stroke-linecap:round; stroke-linejoin:round;fill:none"
d="M 1.7729,15.6820
3.2360,15.6820
" /> 
<path style="fill:none; 
stroke:#840000; stroke-width:0.2540; stroke-opacity:1; 
stroke-linecap:round; stroke-linejoin:round;fill:none"
d="M 4.2113,15.6820
4.6990,15.6820
" /> 
<path style="fill:none; 
stroke:#840000; stroke-width:0.2540; stroke-opacity:1; 
stroke-linecap:round; stroke-linejoin:round;fill:none"
d="M 4.6990,15.6820
10.5512,15.6820
" /> 
<path style="fill:none; 
stroke:#840000; stroke-width:0.2540; stroke-opacity:1; 
stroke-linecap:round; stroke-linejoin:round;fill:none"
d="M 5.1867,14.2190
4.6990,15.6820
" /> 
<path style="fill:none; 
stroke:#840000; stroke-width:0.2540; stroke-opacity:1; 
stroke-linecap:round; stroke-linejoin:round;fill:none"
d="M 5.1867,14.2190
10.0635,14.2190
" /> 
<path style="fill:none; 
stroke:#840000; stroke-width:0.2540; stroke-opacity:1; 
stroke-linecap:round; stroke-linejoin:round;fill:none"
d="M 5.9741,3.7237
5.9741,10.0737
" /> 
<path style="fill:none; 
stroke:#840000; stroke-width:0.2540; stroke-opacity:1; 
stroke-linecap:round; stroke-linejoin:round;fill:none"
d="M 5.9741,10.0737
9.2761,10.0737
" /> 
<path style="fill:none; 
stroke:#840000; stroke-width:0.1524; stroke-opacity:1; 
stroke-linecap:round; stroke-linejoin:round;fill:none"
d="M 7.6251,11.0897
7.6251,10.2007
" /> 
<path style="fill:none; 
stroke:#840000; stroke-width:0.1524; stroke-opacity:1; 
stroke-linecap:round; stroke-linejoin:round;fill:none"
d="M 7.6251,11.8517
7.6251,12.6137
" /> 
<path style="fill:none; 
stroke:#840000; stroke-width:0.1524; stroke-opacity:1; 
stroke-linecap:round; stroke-linejoin:round;fill:none"
d="M 7.6251,14.2190
7.6251,13.2434
" /> 
<path style="fill:none; 
stroke:#840000; stroke-width:0.2540; stroke-opacity:1; 
stroke-linecap:round; stroke-linejoin:round;fill:none"
d="M 9.2761,3.7237
5.9741,3.7237
" /> 
<path style="fill:none; 
stroke:#840000; stroke-width:0.1524; stroke-opacity:1; 
stroke-linecap:round; stroke-linejoin:round;fill:none"
d="M 9.2761,5.6287
12.7051,5.6287
" /> 
<path style="fill:none; 
stroke:#840000; stroke-width:0.2540; stroke-opacity:1; 
stroke-linecap:round; stroke-linejoin:round;fill:none"
d="M 9.2761,10.0737
9.2761,3.7237
" /> 
<path style="fill:none; 
stroke:#840000; stroke-width:0.1524; stroke-opacity:1; 
stroke-linecap:round; stroke-linejoin:round;fill:none"
d="M 9.4031,6.8987
15.2451,6.8987
" /> 
<path style="fill:none; 
stroke:#840000; stroke-width:0.1524; stroke-opacity:1; 
stroke-linecap:round; stroke-linejoin:round;fill:none"
d="M 9.4031,8.1687
17.7851,8.1687
" /> 
<path style="fill:none; 
stroke:#840000; stroke-width:0.2540; stroke-opacity:1; 
stroke-linecap:round; stroke-linejoin:round;fill:none"
d="M 10.0635,14.2190
10.5512,15.6820
" /> 
<path style="fill:none; 
stroke:#840000; stroke-width:0.2540; stroke-opacity:1; 
stroke-linecap:round; stroke-linejoin:round;fill:none"
d="M 10.5512,15.6820
11.0389,15.6820
" /> 
<path style="fill:none; 
stroke:#840000; stroke-width:0.1524; stroke-opacity:1; 
stroke-linecap:round; stroke-linejoin:round;fill:none"
d="M 12.7051,5.6287
12.7051,4.3587
" /> 
<path style="fill:none; 
stroke:#840000; stroke-width:0.2540; stroke-opacity:1; 
stroke-linecap:round; stroke-linejoin:round;fill:none"
d="M 13.4773,15.6820
12.0142,15.6820
" /> 
<path style="fill:none; 
stroke:#840000; stroke-width:0.1524; stroke-opacity:1; 
stroke-linecap:round; stroke-linejoin:round;fill:none"
d="M 15.2451,6.8987
15.2451,4.3587
" /> 
<path style="fill:none; 
stroke:#840000; stroke-width:0.1524; stroke-opacity:1; 
stroke-linecap:round; stroke-linejoin:round;fill:none"
d="M 17.7851,8.1687
17.7851,4.3587
" /> 
</g>
<g style="fill:none; 
stroke:#840000; stroke-width:0.1524; stroke-opacity:1; 
stroke-linecap:round; stroke-linejoin:round;">
<path d="M12.7051 4.3587
L12.7051 1.8187
" />
</g>
<g style="fill:none; 
stroke:#A90000; stroke-width:0.1524; stroke-opacity:1; 
stroke-linecap:round; stroke-linejoin:round;">
<g transform="rotate(-90.000000 12.3495 3.0887)">
<text x="12.3495" y="3.0887"
textLength="2.8375" font-size="2.0320" lengthAdjust="spacingAndGlyphs"
text-anchor="middle" opacity="0" stroke-opacity="0">L1</text>
</g>
<g class="stroked-text"><desc>L1</desc>
<path d="M12.1550 3.3426
L12.1550 4.0683
" />
<path d="M12.1550 4.0683
L10.6310 4.0683
" />
<path d="M12.1550 2.0363
L12.1550 2.9072
" />
<path d="M12.1550 2.4717
L10.6310 2.4717
" />
<path d="M10.6310 2.4717
L10.8487 2.6169
" />
<path d="M10.8487 2.6169
L10.9939 2.7620
" />
<path d="M10.9939 2.7620
L11.0665 2.9072
" />
</g></g>
<g style="fill:none; 
stroke:#840000; stroke-width:0.1524; stroke-opacity:1; 
stroke-linecap:round; stroke-linejoin:round;">
<path d="M15.2451 4.3587
L15.2451 1.8187
" />
</g>
<g style="fill:none; 
stroke:#A90000; stroke-width:0.1524; stroke-opacity:1; 
stroke-linecap:round; stroke-linejoin:round;">
<g transform="rotate(-90.000000 14.8895 3.0887)">
<text x="14.8895" y="3.0887"
textLength="2.8375" font-size="2.0320" lengthAdjust="spacingAndGlyphs"
text-anchor="middle" opacity="0" stroke-opacity="0">L2</text>
</g>
<g class="stroked-text"><desc>L2</desc>
<path d="M14.6950 3.3426
L14.6950 4.0683
" />
<path d="M14.6950 4.0683
L13.1710 4.0683
" />
<path d="M13.3162 2.9072
L13.2436 2.8346
" />
<path d="M13.2436 2.8346
L13.1710 2.6895
" />
<path d="M13.1710 2.6895
L13.1710 2.3266
" />
<path d="M13.1710 2.3266
L13.2436 2.1815
" />
<path d="M13.2436 2.1815
L13.3162 2.1089
" />
<path d="M13.3162 2.1089
L13.4613 2.0363
" />
<path d="M13.4613 2.0363
L13.6065 2.0363
" />
<path d="M13.6065 2.0363
L13.8242 2.1089
" />
<path d="M13.8242 2.1089
L14.6950 2.9797
" />
<path d="M14.6950 2.9797
L14.6950 2.0363
" />
</g></g>
<g style="fill:none; 
stroke:#840000; stroke-width:0.1524; stroke-opacity:1; 
stroke-linecap:round; stroke-linejoin:round;">
<path d="M17.7851 4.3587
L17.7851 1.8187
" />
</g>
<g style="fill:none; 
stroke:#A90000; stroke-width:0.1524; stroke-opacity:1; 
stroke-linecap:round; stroke-linejoin:round;">
<g transform="rotate(-90.000000 17.4295 3.0887)">
<text x="17.4295" y="3.0887"
textLength="2.8375" font-size="2.0320" lengthAdjust="spacingAndGlyphs"
text-anchor="middle" opacity="0" stroke-opacity="0">L3</text>
</g>
<g class="stroked-text"><desc>L3</desc>
<path d="M17.2350 3.3426
L17.2350 4.0683
" />
<path d="M17.2350 4.0683
L15.7110 4.0683
" />
<path d="M15.7110 2.9797
L15.7110 2.0363
" />
<path d="M15.7110 2.0363
L16.2916 2.5443
" />
<path d="M16.2916 2.5443
L16.2916 2.3266
" />
<path d="M16.2916 2.3266
L16.3642 2.1815
" />
<path d="M16.3642 2.1815
L16.4367 2.1089
" />
<path d="M16.4367 2.1089
L16.5819 2.0363
" />
<path d="M16.5819 2.0363
L16.9447 2.0363
" />
<path d="M16.9447 2.0363
L17.0899 2.1089
" />
<path d="M17.0899 2.1089
L17.1625 2.1815
" />
<path d="M17.1625 2.1815
L17.2350 2.3266
" />
<path d="M17.2350 2.3266
L17.2350 2.7620
" />
<path d="M17.2350 2.7620
L17.1625 2.9072
" />
<path d="M17.1625 2.9072
L17.0899 2.9797
" />
</g></g> 
</svg>
