<?xml version="1.0" standalone="no"?>
 <!DOCTYPE svg PUBLIC "-//W3C//DTD SVG 1.1//EN" 
 "http://www.w3.org/Graphics/SVG/1.1/DTD/svg11.dtd"> 
<svg
  xmlns:svg="http://www.w3.org/2000/svg"
  xmlns="http://www.w3.org/2000/svg"
  xmlns:xlink="http://www.w3.org/1999/xlink"
  xmlns:inkscape="http://www.inkscape.org/namespaces/inkscape"
  version="1.1"
  width="8.7122mm" height="13.1064mm" viewBox="0.0000 0.0000 8.7122 13.1064">
<title>SVG Image created as ENDSCHALTER_1_OEFFNER+1_SCHLIESSER_unit2.svg date 2026-08-09T11:54:34 </title>
  <desc>Image generated by Eeschema-SVG </desc>
<g style="fill:#000000; fill-opacity:1.0000;stroke:#000000; stroke-opacity:1.0000;
stroke-linecap:round; stroke-linejoin:round;"
 transform="translate(0 0) scale(1 1)">
<path style="fill:none; 
stroke:#840000; stroke-width:0.1524; stroke-opacity:1; 
stroke-linecap:round; stroke-linejoin:round;fill:none"
d="M 0.8001,6.5532
2.0701,6.5532
" /> 
<path style="fill:none; 
stroke:#840000; stroke-width:0.1524; stroke-opacity:1; 
stroke-linecap:round; stroke-linejoin:round;fill:none"
d="M 3.3401,6.5532
4.6101,6.5532
" /> 
<path style="fill:none; 
stroke:#840000; stroke-width:0.1524; stroke-opacity:1; 
stroke-linecap:round; stroke-linejoin:round;fill:none"
d="M 5.8801,4.7752
5.8801,4.0132
" /> 
<path style="fill:none; 
stroke:#840000; stroke-width:0.2540; stroke-opacity:1; 
stroke-linecap:round; stroke-linejoin:round;fill:none"
d="M 5.8801,9.0932
7.2569,4.4148
" /> 
<path style="fill:none; 
stroke:#840000; stroke-width:0.1524; stroke-opacity:1; 
stroke-linecap:round; stroke-linejoin:round;fill:none"
d="M 6.0071,6.2992
6.5151,6.4262
" /> 
<path style="fill:none; 
stroke:#840000; stroke-width:0.1524; stroke-opacity:1; 
stroke-linecap:round; stroke-linejoin:round;fill:none"
d="M 6.3881,7.1882
6.0071,6.2992
" /> 
<path style="fill:none; 
stroke:#840000; stroke-width:0.1524; stroke-opacity:1; 
stroke-linecap:round; stroke-linejoin:round;fill:none"
d="M 7.9121,4.7752
5.8801,4.7752
" /> 
</g>
<g style="fill:none; 
stroke:#840000; stroke-width:0.1524; stroke-opacity:1; 
stroke-linecap:round; stroke-linejoin:round;">
<path d="M5.8801 4.0132
L5.8801 1.4732
" />
</g>
<g style="fill:none; 
stroke:#A90000; stroke-width:0.1524; stroke-opacity:1; 
stroke-linecap:round; stroke-linejoin:round;">
<g transform="rotate(-90.000000 5.5245 2.7432)">
<text x="5.5245" y="2.7432"
textLength="3.0552" font-size="2.0320" lengthAdjust="spacingAndGlyphs"
text-anchor="middle" opacity="0" stroke-opacity="0">21</text>
</g>
<g class="stroked-text"><desc>21</desc>
<path d="M3.9512 3.9043
L3.8786 3.8317
" />
<path d="M3.8786 3.8317
L3.8060 3.6866
" />
<path d="M3.8060 3.6866
L3.8060 3.3237
" />
<path d="M3.8060 3.3237
L3.8786 3.1786
" />
<path d="M3.8786 3.1786
L3.9512 3.1060
" />
<path d="M3.9512 3.1060
L4.0963 3.0334
" />
<path d="M4.0963 3.0334
L4.2415 3.0334
" />
<path d="M4.2415 3.0334
L4.4592 3.1060
" />
<path d="M4.4592 3.1060
L5.3300 3.9768
" />
<path d="M5.3300 3.9768
L5.3300 3.0334
" />
<path d="M5.3300 1.5820
L5.3300 2.4529
" />
<path d="M5.3300 2.0174
L3.8060 2.0174
" />
<path d="M3.8060 2.0174
L4.0237 2.1626
" />
<path d="M4.0237 2.1626
L4.1689 2.3077
" />
<path d="M4.1689 2.3077
L4.2415 2.4529
" />
</g></g>
<g style="fill:none; 
stroke:#840000; stroke-width:0.1524; stroke-opacity:1; 
stroke-linecap:round; stroke-linejoin:round;">
<path d="M5.8801 9.0932
L5.8801 11.6332
" />
</g>
<g style="fill:none; 
stroke:#A90000; stroke-width:0.1524; stroke-opacity:1; 
stroke-linecap:round; stroke-linejoin:round;">
<g transform="rotate(-90.000000 5.5245 10.3632)">
<text x="5.5245" y="10.3632"
textLength="3.0552" font-size="2.0320" lengthAdjust="spacingAndGlyphs"
text-anchor="middle" opacity="0" stroke-opacity="0">22</text>
</g>
<g class="stroked-text"><desc>22</desc>
<path d="M3.9512 11.5243
L3.8786 11.4517
" />
<path d="M3.8786 11.4517
L3.8060 11.3066
" />
<path d="M3.8060 11.3066
L3.8060 10.9437
" />
<path d="M3.8060 10.9437
L3.8786 10.7986
" />
<path d="M3.8786 10.7986
L3.9512 10.7260
" />
<path d="M3.9512 10.7260
L4.0963 10.6534
" />
<path d="M4.0963 10.6534
L4.2415 10.6534
" />
<path d="M4.2415 10.6534
L4.4592 10.7260
" />
<path d="M4.4592 10.7260
L5.3300 11.5968
" />
<path d="M5.3300 11.5968
L5.3300 10.6534
" />
<path d="M3.9512 10.0729
L3.8786 10.0003
" />
<path d="M3.8786 10.0003
L3.8060 9.8552
" />
<path d="M3.8060 9.8552
L3.8060 9.4923
" />
<path d="M3.8060 9.4923
L3.8786 9.3472
" />
<path d="M3.8786 9.3472
L3.9512 9.2746
" />
<path d="M3.9512 9.2746
L4.0963 9.2020
" />
<path d="M4.0963 9.2020
L4.2415 9.2020
" />
<path d="M4.2415 9.2020
L4.4592 9.2746
" />
<path d="M4.4592 9.2746
L5.3300 10.1454
" />
<path d="M5.3300 10.1454
L5.3300 9.2020
" />
</g></g> 
</svg>
