<?xml version="1.0" standalone="no"?>
 <!DOCTYPE svg PUBLIC "-//W3C//DTD SVG 1.1//EN" 
 "http://www.w3.org/Graphics/SVG/1.1/DTD/svg11.dtd"> 
<svg
  xmlns:svg="http://www.w3.org/2000/svg"
  xmlns="http://www.w3.org/2000/svg"
  xmlns:xlink="http://www.w3.org/1999/xlink"
  xmlns:inkscape="http://www.inkscape.org/namespaces/inkscape"
  version="1.1"
  width="27.6860mm" height="25.2984mm" viewBox="0.0000 0.0000 27.6860 25.2984">
<title>SVG Image created as LEISTUNGSSCHALTER_THERMISCHE_MAGNETISCHE_AUSLOESUNG_unit1.svg date 2026-08-09T11:54:34 </title>
  <desc>Image generated by Eeschema-SVG </desc>
<g style="fill:#000000; fill-opacity:1.0000;stroke:#000000; stroke-opacity:1.0000;
stroke-linecap:round; stroke-linejoin:round;"
 transform="translate(0 0) scale(1 1)">
<path style="fill:none; 
stroke:#840000; stroke-width:0.1524; stroke-opacity:1; 
stroke-linecap:round; stroke-linejoin:round;fill:none"
d="M 2.3876,6.4262
2.3876,7.5692
" /> 
<path style="fill:none; 
stroke:#840000; stroke-width:0.1524; stroke-opacity:1; 
stroke-linecap:round; stroke-linejoin:round;fill:none"
d="M 2.3876,7.5692
2.3876,8.7122
" /> 
<path style="fill:none; 
stroke:#840000; stroke-width:0.1524; stroke-opacity:1; 
stroke-linecap:round; stroke-linejoin:round;fill:none"
d="M 3.1496,7.5692
2.3876,7.5692
" /> 
<path style="fill:none; 
stroke:#840000; stroke-width:0.1524; stroke-opacity:1; 
stroke-linecap:round; stroke-linejoin:round;fill:none"
d="M 5.0546,6.4262
5.0546,7.5692
" /> 
<path style="fill:none; 
stroke:#840000; stroke-width:0.1524; stroke-opacity:1; 
stroke-linecap:round; stroke-linejoin:round;fill:none"
d="M 5.0546,6.4262
7.3406,6.4262
" /> 
<path style="fill:none; 
stroke:#840000; stroke-width:0.1524; stroke-opacity:1; 
stroke-linecap:round; stroke-linejoin:round;fill:none"
d="M 5.0546,7.5692
3.9116,7.5692
" /> 
<path style="fill:none; 
stroke:#840000; stroke-width:0.1524; stroke-opacity:1; 
stroke-linecap:round; stroke-linejoin:round;fill:none"
d="M 5.0546,7.5692
5.0546,8.7122
" /> 
<path style="fill:none; 
stroke:#840000; stroke-width:0.1524; stroke-opacity:1; 
stroke-linecap:round; stroke-linejoin:round;fill:none"
d="M 5.0546,8.7122
7.3406,8.7122
" /> 
<path style="fill:none; 
stroke:#840000; stroke-width:0.1524; stroke-opacity:1; 
stroke-linecap:round; stroke-linejoin:round;fill:none"
d="M 6.1976,6.1722
6.1976,8.9662
" /> 
<path style="fill:none; 
stroke:#840000; stroke-width:0.1524; stroke-opacity:1; 
stroke-linecap:round; stroke-linejoin:round;fill:none"
d="M 6.1976,9.8552
6.1976,10.9982
" /> 
<path style="fill:none; 
stroke:#840000; stroke-width:0.1524; stroke-opacity:1; 
stroke-linecap:round; stroke-linejoin:round;fill:none"
d="M 6.1976,12.0142
6.1976,13.1572
" /> 
<path style="fill:none; 
stroke:#840000; stroke-width:0.1524; stroke-opacity:1; 
stroke-linecap:round; stroke-linejoin:round;fill:none"
d="M 6.1976,14.1732
6.1976,15.3162
" /> 
<path style="fill:none; 
stroke:#840000; stroke-width:0.1524; stroke-opacity:1; 
stroke-linecap:round; stroke-linejoin:round;fill:none"
d="M 6.1976,14.1732
6.8326,14.1732
" /> 
<path style="fill:none; 
stroke:#840000; stroke-width:0.1524; stroke-opacity:1; 
stroke-linecap:round; stroke-linejoin:round;fill:none"
d="M 6.1976,16.4592
6.1976,17.6022
" /> 
<path style="fill:none; 
stroke:#840000; stroke-width:0.1524; stroke-opacity:1; 
stroke-linecap:round; stroke-linejoin:round;fill:none"
d="M 6.1976,17.6022
6.8326,17.6022
" /> 
<path style="fill:none; 
stroke:#840000; stroke-width:0.1524; stroke-opacity:1; 
stroke-linecap:round; stroke-linejoin:round;fill:none"
d="M 7.3406,6.4262
7.3406,7.5692
" /> 
<path style="fill:none; 
stroke:#840000; stroke-width:0.1524; stroke-opacity:1; 
stroke-linecap:round; stroke-linejoin:round;fill:none"
d="M 7.3406,7.5692
5.0546,7.5692
" /> 
<path style="fill:none; 
stroke:#840000; stroke-width:0.1524; stroke-opacity:1; 
stroke-linecap:round; stroke-linejoin:round;fill:none"
d="M 7.3406,7.5692
7.3406,8.7122
" /> 
<path style="fill:none; 
stroke:#840000; stroke-width:0.1524; stroke-opacity:1; 
stroke-linecap:round; stroke-linejoin:round;fill:none"
d="M 7.8486,14.1732
8.8646,14.1732
" /> 
<path style="fill:none; 
stroke:#840000; stroke-width:0.1524; stroke-opacity:1; 
stroke-linecap:round; stroke-linejoin:round;fill:none"
d="M 7.8486,17.6022
8.8646,17.6022
" /> 
<path style="fill:none; 
stroke:#840000; stroke-width:0.1524; stroke-opacity:1; 
stroke-linecap:round; stroke-linejoin:round;fill:none"
d="M 7.9756,7.5692
7.3406,7.5692
" /> 
<path style="fill:none; 
stroke:#840000; stroke-width:0.1524; stroke-opacity:1; 
stroke-linecap:round; stroke-linejoin:round;fill:none"
d="M 9.6266,7.5692
8.7376,7.5692
" /> 
<path style="fill:none; 
stroke:#840000; stroke-width:0.1524; stroke-opacity:1; 
stroke-linecap:round; stroke-linejoin:round;fill:none"
d="M 9.6266,14.1732
9.8806,14.1732
" /> 
<path style="fill:none; 
stroke:#840000; stroke-width:0.1524; stroke-opacity:1; 
stroke-linecap:round; stroke-linejoin:round;fill:none"
d="M 9.6266,17.6022
9.8806,17.6022
" /> 
<path style="fill:none; 
stroke:#840000; stroke-width:0.2540; stroke-opacity:1; 
stroke-linecap:round; stroke-linejoin:round;fill:none"
d="M 10.0076,12.6492
10.0076,15.9512
" /> 
<path style="fill:none; 
stroke:#840000; stroke-width:0.2540; stroke-opacity:1; 
stroke-linecap:round; stroke-linejoin:round;fill:none"
d="M 10.0076,15.9512
10.0076,19.2532
" /> 
<path style="fill:none; 
stroke:#840000; stroke-width:0.2540; stroke-opacity:1; 
stroke-linecap:round; stroke-linejoin:round;fill:none"
d="M 10.0076,15.9512
12.5476,15.9512
" /> 
<path style="fill:none; 
stroke:#840000; stroke-width:0.2540; stroke-opacity:1; 
stroke-linecap:round; stroke-linejoin:round;fill:none"
d="M 10.0076,19.2532
12.5476,19.2532
" /> 
<path style="fill:none; 
stroke:#840000; stroke-width:0.2540; stroke-opacity:1; 
stroke-linecap:round; stroke-linejoin:round;fill:none"
d="M 11.0236,18.6182
11.7856,18.6182
" /> 
<path style="fill:none; 
stroke:#840000; stroke-width:0.2540; stroke-opacity:1; 
stroke-linecap:round; stroke-linejoin:round;fill:none"
d="M 11.2776,16.7132
12.0396,16.7132
" /> 
<path style="fill:none; 
stroke:#840000; stroke-width:0.2540; stroke-opacity:1; 
stroke-linecap:round; stroke-linejoin:round;fill:none"
d="M 11.4046,18.6182
11.6586,16.7132
" /> 
<path style="fill:none; 
stroke:#840000; stroke-width:0.1524; stroke-opacity:1; 
stroke-linecap:round; stroke-linejoin:round;fill:none"
d="M 11.5316,13.6652
11.5316,14.9352
" /> 
<path style="fill:none; 
stroke:#840000; stroke-width:0.1524; stroke-opacity:1; 
stroke-linecap:round; stroke-linejoin:round;fill:none"
d="M 11.5316,14.9352
12.5476,14.9352
" /> 
<path style="fill:none; 
stroke:#840000; stroke-width:0.1524; stroke-opacity:1; 
stroke-linecap:round; stroke-linejoin:round;fill:none"
d="M 11.7856,7.5692
10.6426,7.5692
" /> 
<path style="fill:none; 
stroke:#840000; stroke-width:0.1524; stroke-opacity:1; 
stroke-linecap:round; stroke-linejoin:round;fill:none"
d="M 12.2936,5.7912
12.8016,6.2992
" /> 
<path style="fill:none; 
stroke:#840000; stroke-width:0.1524; stroke-opacity:1; 
stroke-linecap:round; stroke-linejoin:round;fill:none"
d="M 12.2936,6.2992
12.8016,5.7912
" /> 
<path style="fill:none; 
stroke:#840000; stroke-width:0.1524; stroke-opacity:1; 
stroke-linecap:round; stroke-linejoin:round;fill:none"
d="M 12.5476,6.0452
12.5476,5.0292
" /> 
<path style="fill:none; 
stroke:#840000; stroke-width:0.2540; stroke-opacity:1; 
stroke-linecap:round; stroke-linejoin:round;fill:none"
d="M 12.5476,10.1092
11.2776,5.9182
" /> 
<path style="fill:none; 
stroke:#840000; stroke-width:0.1524; stroke-opacity:1; 
stroke-linecap:round; stroke-linejoin:round;fill:none"
d="M 12.5476,10.1092
12.5476,10.8712
" /> 
</g>
<g style="fill:none; 
stroke:#840000; stroke-width:0.1524; stroke-opacity:1; 
stroke-linecap:round; stroke-linejoin:round;">
<circle cx="12.5476" cy="11.3792" r="0.5080" /> 
<path style="fill:none; 
stroke:#840000; stroke-width:0.1524; stroke-opacity:1; 
stroke-linecap:round; stroke-linejoin:round;fill:none"
d="M 12.5476,11.8872
12.5476,12.6492
" /> 
<path style="fill:none; 
stroke:#840000; stroke-width:0.2540; stroke-opacity:1; 
stroke-linecap:round; stroke-linejoin:round;fill:none"
d="M 12.5476,12.6492
10.0076,12.6492
" /> 
<path style="fill:none; 
stroke:#840000; stroke-width:0.1524; stroke-opacity:1; 
stroke-linecap:round; stroke-linejoin:round;fill:none"
d="M 12.5476,12.6492
12.5476,13.6652
" /> 
<path style="fill:none; 
stroke:#840000; stroke-width:0.1524; stroke-opacity:1; 
stroke-linecap:round; stroke-linejoin:round;fill:none"
d="M 12.5476,13.6652
11.5316,13.6652
" /> 
<path style="fill:none; 
stroke:#840000; stroke-width:0.1524; stroke-opacity:1; 
stroke-linecap:round; stroke-linejoin:round;fill:none"
d="M 12.5476,14.9352
12.5476,15.9512
" /> 
<path style="fill:none; 
stroke:#840000; stroke-width:0.2540; stroke-opacity:1; 
stroke-linecap:round; stroke-linejoin:round;fill:none"
d="M 12.5476,15.9512
15.0876,15.9512
" /> 
<path style="fill:none; 
stroke:#840000; stroke-width:0.1524; stroke-opacity:1; 
stroke-linecap:round; stroke-linejoin:round;fill:none"
d="M 12.5476,19.2532
12.5476,20.2692
" /> 
<path style="fill:none; 
stroke:#840000; stroke-width:0.2540; stroke-opacity:1; 
stroke-linecap:round; stroke-linejoin:round;fill:none"
d="M 12.5476,19.2532
15.0876,19.2532
" /> 
<path style="fill:none; 
stroke:#840000; stroke-width:0.2540; stroke-opacity:1; 
stroke-linecap:round; stroke-linejoin:round;fill:none"
d="M 13.0556,16.7132
14.3256,17.6022
" /> 
<path style="fill:none; 
stroke:#840000; stroke-width:0.1524; stroke-opacity:1; 
stroke-linecap:round; stroke-linejoin:round;fill:none"
d="M 14.3256,7.5692
13.0556,7.5692
" /> 
<path style="fill:none; 
stroke:#840000; stroke-width:0.2540; stroke-opacity:1; 
stroke-linecap:round; stroke-linejoin:round;fill:none"
d="M 14.3256,17.6022
13.0556,18.6182
" /> 
<path style="fill:none; 
stroke:#840000; stroke-width:0.2540; stroke-opacity:1; 
stroke-linecap:round; stroke-linejoin:round;fill:none"
d="M 15.0876,12.6492
12.5476,12.6492
" /> 
<path style="fill:none; 
stroke:#840000; stroke-width:0.2540; stroke-opacity:1; 
stroke-linecap:round; stroke-linejoin:round;fill:none"
d="M 15.0876,12.6492
15.0876,15.9512
" /> 
<path style="fill:none; 
stroke:#840000; stroke-width:0.2540; stroke-opacity:1; 
stroke-linecap:round; stroke-linejoin:round;fill:none"
d="M 15.0876,15.9512
15.0876,19.2532
" /> 
<path style="fill:none; 
stroke:#840000; stroke-width:0.2540; stroke-opacity:1; 
stroke-linecap:round; stroke-linejoin:round;fill:none"
d="M 15.0876,15.9512
17.6276,15.9512
" /> 
<path style="fill:none; 
stroke:#840000; stroke-width:0.2540; stroke-opacity:1; 
stroke-linecap:round; stroke-linejoin:round;fill:none"
d="M 15.0876,19.2532
17.6276,19.2532
" /> 
<path style="fill:none; 
stroke:#840000; stroke-width:0.2540; stroke-opacity:1; 
stroke-linecap:round; stroke-linejoin:round;fill:none"
d="M 16.1036,18.6182
16.8656,18.6182
" /> 
<path style="fill:none; 
stroke:#840000; stroke-width:0.2540; stroke-opacity:1; 
stroke-linecap:round; stroke-linejoin:round;fill:none"
d="M 16.3576,16.7132
17.1196,16.7132
" /> 
<path style="fill:none; 
stroke:#840000; stroke-width:0.2540; stroke-opacity:1; 
stroke-linecap:round; stroke-linejoin:round;fill:none"
d="M 16.4846,18.6182
16.7386,16.7132
" /> 
<path style="fill:none; 
stroke:#840000; stroke-width:0.1524; stroke-opacity:1; 
stroke-linecap:round; stroke-linejoin:round;fill:none"
d="M 16.6116,13.6652
16.6116,14.9352
" /> 
<path style="fill:none; 
stroke:#840000; stroke-width:0.1524; stroke-opacity:1; 
stroke-linecap:round; stroke-linejoin:round;fill:none"
d="M 16.6116,14.9352
17.6276,14.9352
" /> 
<path style="fill:none; 
stroke:#840000; stroke-width:0.1524; stroke-opacity:1; 
stroke-linecap:round; stroke-linejoin:round;fill:none"
d="M 16.7386,7.5692
15.5956,7.5692
" /> 
<path style="fill:none; 
stroke:#840000; stroke-width:0.1524; stroke-opacity:1; 
stroke-linecap:round; stroke-linejoin:round;fill:none"
d="M 17.3736,5.7912
17.8816,6.2992
" /> 
<path style="fill:none; 
stroke:#840000; stroke-width:0.1524; stroke-opacity:1; 
stroke-linecap:round; stroke-linejoin:round;fill:none"
d="M 17.3736,6.2992
17.8816,5.7912
" /> 
<path style="fill:none; 
stroke:#840000; stroke-width:0.1524; stroke-opacity:1; 
stroke-linecap:round; stroke-linejoin:round;fill:none"
d="M 17.6276,6.0452
17.6276,5.0292
" /> 
<path style="fill:none; 
stroke:#840000; stroke-width:0.2540; stroke-opacity:1; 
stroke-linecap:round; stroke-linejoin:round;fill:none"
d="M 17.6276,10.1092
16.3576,5.9182
" /> 
<path style="fill:none; 
stroke:#840000; stroke-width:0.1524; stroke-opacity:1; 
stroke-linecap:round; stroke-linejoin:round;fill:none"
d="M 17.6276,10.1092
17.6276,10.8712
" /> 
</g>
<g style="fill:none; 
stroke:#840000; stroke-width:0.1524; stroke-opacity:1; 
stroke-linecap:round; stroke-linejoin:round;">
<circle cx="17.6276" cy="11.3792" r="0.5080" /> 
<path style="fill:none; 
stroke:#840000; stroke-width:0.1524; stroke-opacity:1; 
stroke-linecap:round; stroke-linejoin:round;fill:none"
d="M 17.6276,11.8872
17.6276,12.6492
" /> 
<path style="fill:none; 
stroke:#840000; stroke-width:0.2540; stroke-opacity:1; 
stroke-linecap:round; stroke-linejoin:round;fill:none"
d="M 17.6276,12.6492
15.0876,12.6492
" /> 
<path style="fill:none; 
stroke:#840000; stroke-width:0.1524; stroke-opacity:1; 
stroke-linecap:round; stroke-linejoin:round;fill:none"
d="M 17.6276,12.6492
17.6276,13.6652
" /> 
<path style="fill:none; 
stroke:#840000; stroke-width:0.1524; stroke-opacity:1; 
stroke-linecap:round; stroke-linejoin:round;fill:none"
d="M 17.6276,13.6652
16.6116,13.6652
" /> 
<path style="fill:none; 
stroke:#840000; stroke-width:0.1524; stroke-opacity:1; 
stroke-linecap:round; stroke-linejoin:round;fill:none"
d="M 17.6276,14.9352
17.6276,15.9512
" /> 
<path style="fill:none; 
stroke:#840000; stroke-width:0.2540; stroke-opacity:1; 
stroke-linecap:round; stroke-linejoin:round;fill:none"
d="M 17.6276,15.9512
20.1676,15.9512
" /> 
<path style="fill:none; 
stroke:#840000; stroke-width:0.1524; stroke-opacity:1; 
stroke-linecap:round; stroke-linejoin:round;fill:none"
d="M 17.6276,19.2532
17.6276,20.2692
" /> 
<path style="fill:none; 
stroke:#840000; stroke-width:0.2540; stroke-opacity:1; 
stroke-linecap:round; stroke-linejoin:round;fill:none"
d="M 17.6276,19.2532
20.1676,19.2532
" /> 
<path style="fill:none; 
stroke:#840000; stroke-width:0.2540; stroke-opacity:1; 
stroke-linecap:round; stroke-linejoin:round;fill:none"
d="M 18.1356,16.7132
19.4056,17.6022
" /> 
<path style="fill:none; 
stroke:#840000; stroke-width:0.1524; stroke-opacity:1; 
stroke-linecap:round; stroke-linejoin:round;fill:none"
d="M 19.2786,7.5692
18.0086,7.5692
" /> 
<path style="fill:none; 
stroke:#840000; stroke-width:0.2540; stroke-opacity:1; 
stroke-linecap:round; stroke-linejoin:round;fill:none"
d="M 19.4056,17.6022
18.1356,18.6182
" /> 
<path style="fill:none; 
stroke:#840000; stroke-width:0.2540; stroke-opacity:1; 
stroke-linecap:round; stroke-linejoin:round;fill:none"
d="M 20.1676,12.6492
17.6276,12.6492
" /> 
<path style="fill:none; 
stroke:#840000; stroke-width:0.2540; stroke-opacity:1; 
stroke-linecap:round; stroke-linejoin:round;fill:none"
d="M 20.1676,12.6492
20.1676,15.9512
" /> 
<path style="fill:none; 
stroke:#840000; stroke-width:0.2540; stroke-opacity:1; 
stroke-linecap:round; stroke-linejoin:round;fill:none"
d="M 20.1676,15.9512
20.1676,19.2532
" /> 
<path style="fill:none; 
stroke:#840000; stroke-width:0.2540; stroke-opacity:1; 
stroke-linecap:round; stroke-linejoin:round;fill:none"
d="M 20.1676,15.9512
22.7076,15.9512
" /> 
<path style="fill:none; 
stroke:#840000; stroke-width:0.2540; stroke-opacity:1; 
stroke-linecap:round; stroke-linejoin:round;fill:none"
d="M 20.1676,19.2532
22.7076,19.2532
" /> 
<path style="fill:none; 
stroke:#840000; stroke-width:0.2540; stroke-opacity:1; 
stroke-linecap:round; stroke-linejoin:round;fill:none"
d="M 21.1836,18.6182
21.9456,18.6182
" /> 
<path style="fill:none; 
stroke:#840000; stroke-width:0.2540; stroke-opacity:1; 
stroke-linecap:round; stroke-linejoin:round;fill:none"
d="M 21.4376,16.7132
22.1996,16.7132
" /> 
<path style="fill:none; 
stroke:#840000; stroke-width:0.2540; stroke-opacity:1; 
stroke-linecap:round; stroke-linejoin:round;fill:none"
d="M 21.5646,18.6182
21.8186,16.7132
" /> 
<path style="fill:none; 
stroke:#840000; stroke-width:0.1524; stroke-opacity:1; 
stroke-linecap:round; stroke-linejoin:round;fill:none"
d="M 21.6916,13.6652
21.6916,14.9352
" /> 
<path style="fill:none; 
stroke:#840000; stroke-width:0.1524; stroke-opacity:1; 
stroke-linecap:round; stroke-linejoin:round;fill:none"
d="M 21.6916,14.9352
22.7076,14.9352
" /> 
<path style="fill:none; 
stroke:#840000; stroke-width:0.1524; stroke-opacity:1; 
stroke-linecap:round; stroke-linejoin:round;fill:none"
d="M 21.8186,7.5692
20.6756,7.5692
" /> 
<path style="fill:none; 
stroke:#840000; stroke-width:0.1524; stroke-opacity:1; 
stroke-linecap:round; stroke-linejoin:round;fill:none"
d="M 22.4536,5.7912
22.9616,6.2992
" /> 
<path style="fill:none; 
stroke:#840000; stroke-width:0.1524; stroke-opacity:1; 
stroke-linecap:round; stroke-linejoin:round;fill:none"
d="M 22.4536,6.2992
22.9616,5.7912
" /> 
<path style="fill:none; 
stroke:#840000; stroke-width:0.1524; stroke-opacity:1; 
stroke-linecap:round; stroke-linejoin:round;fill:none"
d="M 22.7076,6.0452
22.7076,5.0292
" /> 
<path style="fill:none; 
stroke:#840000; stroke-width:0.2540; stroke-opacity:1; 
stroke-linecap:round; stroke-linejoin:round;fill:none"
d="M 22.7076,10.1092
21.4376,5.9182
" /> 
<path style="fill:none; 
stroke:#840000; stroke-width:0.1524; stroke-opacity:1; 
stroke-linecap:round; stroke-linejoin:round;fill:none"
d="M 22.7076,10.1092
22.7076,10.8712
" /> 
</g>
<g style="fill:none; 
stroke:#840000; stroke-width:0.1524; stroke-opacity:1; 
stroke-linecap:round; stroke-linejoin:round;">
<circle cx="22.7076" cy="11.3792" r="0.5080" /> 
<path style="fill:none; 
stroke:#840000; stroke-width:0.1524; stroke-opacity:1; 
stroke-linecap:round; stroke-linejoin:round;fill:none"
d="M 22.7076,11.8872
22.7076,12.6492
" /> 
<path style="fill:none; 
stroke:#840000; stroke-width:0.2540; stroke-opacity:1; 
stroke-linecap:round; stroke-linejoin:round;fill:none"
d="M 22.7076,12.6492
20.1676,12.6492
" /> 
<path style="fill:none; 
stroke:#840000; stroke-width:0.1524; stroke-opacity:1; 
stroke-linecap:round; stroke-linejoin:round;fill:none"
d="M 22.7076,12.6492
22.7076,13.6652
" /> 
<path style="fill:none; 
stroke:#840000; stroke-width:0.1524; stroke-opacity:1; 
stroke-linecap:round; stroke-linejoin:round;fill:none"
d="M 22.7076,13.6652
21.6916,13.6652
" /> 
<path style="fill:none; 
stroke:#840000; stroke-width:0.1524; stroke-opacity:1; 
stroke-linecap:round; stroke-linejoin:round;fill:none"
d="M 22.7076,14.9352
22.7076,15.9512
" /> 
<path style="fill:none; 
stroke:#840000; stroke-width:0.2540; stroke-opacity:1; 
stroke-linecap:round; stroke-linejoin:round;fill:none"
d="M 22.7076,15.9512
25.2476,15.9512
" /> 
<path style="fill:none; 
stroke:#840000; stroke-width:0.1524; stroke-opacity:1; 
stroke-linecap:round; stroke-linejoin:round;fill:none"
d="M 22.7076,19.2532
22.7076,20.2692
" /> 
<path style="fill:none; 
stroke:#840000; stroke-width:0.2540; stroke-opacity:1; 
stroke-linecap:round; stroke-linejoin:round;fill:none"
d="M 22.7076,19.2532
25.2476,19.2532
" /> 
<path style="fill:none; 
stroke:#840000; stroke-width:0.2540; stroke-opacity:1; 
stroke-linecap:round; stroke-linejoin:round;fill:none"
d="M 23.2156,16.7132
24.4856,17.6022
" /> 
<path style="fill:none; 
stroke:#840000; stroke-width:0.2540; stroke-opacity:1; 
stroke-linecap:round; stroke-linejoin:round;fill:none"
d="M 24.4856,17.6022
23.2156,18.6182
" /> 
<path style="fill:none; 
stroke:#840000; stroke-width:0.2540; stroke-opacity:1; 
stroke-linecap:round; stroke-linejoin:round;fill:none"
d="M 25.2476,12.6492
22.7076,12.6492
" /> 
<path style="fill:none; 
stroke:#840000; stroke-width:0.2540; stroke-opacity:1; 
stroke-linecap:round; stroke-linejoin:round;fill:none"
d="M 25.2476,15.9512
25.2476,12.6492
" /> 
<path style="fill:none; 
stroke:#840000; stroke-width:0.2540; stroke-opacity:1; 
stroke-linecap:round; stroke-linejoin:round;fill:none"
d="M 25.2476,19.2532
25.2476,15.9512
" /> 
</g>
<g style="fill:none; 
stroke:#840000; stroke-width:0.1524; stroke-opacity:1; 
stroke-linecap:round; stroke-linejoin:round;">
<path d="M12.5476 5.0292
L12.5476 2.4892
" />
</g>
<g style="fill:none; 
stroke:#A90000; stroke-width:0.1524; stroke-opacity:1; 
stroke-linecap:round; stroke-linejoin:round;">
<g transform="rotate(-90.000000 12.1920 3.7592)">
<text x="12.1920" y="3.7592"
textLength="1.6038" font-size="2.0320" lengthAdjust="spacingAndGlyphs"
text-anchor="middle" opacity="0" stroke-opacity="0">1</text>
</g>
<g class="stroked-text"><desc>1</desc>
<path d="M11.9975 3.3237
L11.9975 4.1946
" />
<path d="M11.9975 3.7591
L10.4735 3.7591
" />
<path d="M10.4735 3.7591
L10.6912 3.9043
" />
<path d="M10.6912 3.9043
L10.8364 4.0494
" />
<path d="M10.8364 4.0494
L10.9090 4.1946
" />
</g></g>
<g style="fill:none; 
stroke:#840000; stroke-width:0.1524; stroke-opacity:1; 
stroke-linecap:round; stroke-linejoin:round;">
<path d="M12.5476 20.2692
L12.5476 22.8092
" />
</g>
<g style="fill:none; 
stroke:#A90000; stroke-width:0.1524; stroke-opacity:1; 
stroke-linecap:round; stroke-linejoin:round;">
<g transform="rotate(-90.000000 12.1920 21.5392)">
<text x="12.1920" y="21.5392"
textLength="1.6038" font-size="2.0320" lengthAdjust="spacingAndGlyphs"
text-anchor="middle" opacity="0" stroke-opacity="0">2</text>
</g>
<g class="stroked-text"><desc>2</desc>
<path d="M10.6187 21.9746
L10.5461 21.9020
" />
<path d="M10.5461 21.9020
L10.4735 21.7569
" />
<path d="M10.4735 21.7569
L10.4735 21.3940
" />
<path d="M10.4735 21.3940
L10.5461 21.2489
" />
<path d="M10.5461 21.2489
L10.6187 21.1763
" />
<path d="M10.6187 21.1763
L10.7638 21.1037
" />
<path d="M10.7638 21.1037
L10.9090 21.1037
" />
<path d="M10.9090 21.1037
L11.1267 21.1763
" />
<path d="M11.1267 21.1763
L11.9975 22.0471
" />
<path d="M11.9975 22.0471
L11.9975 21.1037
" />
</g></g>
<g style="fill:none; 
stroke:#840000; stroke-width:0.1524; stroke-opacity:1; 
stroke-linecap:round; stroke-linejoin:round;">
<path d="M17.6276 5.0292
L17.6276 2.4892
" />
</g>
<g style="fill:none; 
stroke:#A90000; stroke-width:0.1524; stroke-opacity:1; 
stroke-linecap:round; stroke-linejoin:round;">
<g transform="rotate(-90.000000 17.2720 3.7592)">
<text x="17.2720" y="3.7592"
textLength="1.6038" font-size="2.0320" lengthAdjust="spacingAndGlyphs"
text-anchor="middle" opacity="0" stroke-opacity="0">3</text>
</g>
<g class="stroked-text"><desc>3</desc>
<path d="M15.5535 4.2671
L15.5535 3.3237
" />
<path d="M15.5535 3.3237
L16.1341 3.8317
" />
<path d="M16.1341 3.8317
L16.1341 3.6140
" />
<path d="M16.1341 3.6140
L16.2067 3.4689
" />
<path d="M16.2067 3.4689
L16.2792 3.3963
" />
<path d="M16.2792 3.3963
L16.4244 3.3237
" />
<path d="M16.4244 3.3237
L16.7872 3.3237
" />
<path d="M16.7872 3.3237
L16.9324 3.3963
" />
<path d="M16.9324 3.3963
L17.0050 3.4689
" />
<path d="M17.0050 3.4689
L17.0775 3.6140
" />
<path d="M17.0775 3.6140
L17.0775 4.0494
" />
<path d="M17.0775 4.0494
L17.0050 4.1946
" />
<path d="M17.0050 4.1946
L16.9324 4.2671
" />
</g></g>
<g style="fill:none; 
stroke:#840000; stroke-width:0.1524; stroke-opacity:1; 
stroke-linecap:round; stroke-linejoin:round;">
<path d="M17.6276 20.2692
L17.6276 22.8092
" />
</g>
<g style="fill:none; 
stroke:#A90000; stroke-width:0.1524; stroke-opacity:1; 
stroke-linecap:round; stroke-linejoin:round;">
<g transform="rotate(-90.000000 17.2720 21.5392)">
<text x="17.2720" y="21.5392"
textLength="1.6038" font-size="2.0320" lengthAdjust="spacingAndGlyphs"
text-anchor="middle" opacity="0" stroke-opacity="0">4</text>
</g>
<g class="stroked-text"><desc>4</desc>
<path d="M16.0615 21.2489
L17.0775 21.2489
" />
<path d="M15.4810 21.6117
L16.5695 21.9746
" />
<path d="M16.5695 21.9746
L16.5695 21.0311
" />
</g></g>
<g style="fill:none; 
stroke:#840000; stroke-width:0.1524; stroke-opacity:1; 
stroke-linecap:round; stroke-linejoin:round;">
<path d="M22.7076 5.0292
L22.7076 2.4892
" />
</g>
<g style="fill:none; 
stroke:#A90000; stroke-width:0.1524; stroke-opacity:1; 
stroke-linecap:round; stroke-linejoin:round;">
<g transform="rotate(-90.000000 22.3520 3.7592)">
<text x="22.3520" y="3.7592"
textLength="1.6038" font-size="2.0320" lengthAdjust="spacingAndGlyphs"
text-anchor="middle" opacity="0" stroke-opacity="0">5</text>
</g>
<g class="stroked-text"><desc>5</desc>
<path d="M20.6335 3.3963
L20.6335 4.1220
" />
<path d="M20.6335 4.1220
L21.3592 4.1946
" />
<path d="M21.3592 4.1946
L21.2867 4.1220
" />
<path d="M21.2867 4.1220
L21.2141 3.9769
" />
<path d="M21.2141 3.9769
L21.2141 3.6140
" />
<path d="M21.2141 3.6140
L21.2867 3.4689
" />
<path d="M21.2867 3.4689
L21.3592 3.3963
" />
<path d="M21.3592 3.3963
L21.5044 3.3237
" />
<path d="M21.5044 3.3237
L21.8672 3.3237
" />
<path d="M21.8672 3.3237
L22.0124 3.3963
" />
<path d="M22.0124 3.3963
L22.0850 3.4689
" />
<path d="M22.0850 3.4689
L22.1575 3.6140
" />
<path d="M22.1575 3.6140
L22.1575 3.9769
" />
<path d="M22.1575 3.9769
L22.0850 4.1220
" />
<path d="M22.0850 4.1220
L22.0124 4.1946
" />
</g></g>
<g style="fill:none; 
stroke:#840000; stroke-width:0.1524; stroke-opacity:1; 
stroke-linecap:round; stroke-linejoin:round;">
<path d="M22.7076 20.2692
L22.7076 22.8092
" />
</g>
<g style="fill:none; 
stroke:#A90000; stroke-width:0.1524; stroke-opacity:1; 
stroke-linecap:round; stroke-linejoin:round;">
<g transform="rotate(-90.000000 22.3520 21.5392)">
<text x="22.3520" y="21.5392"
textLength="1.6038" font-size="2.0320" lengthAdjust="spacingAndGlyphs"
text-anchor="middle" opacity="0" stroke-opacity="0">6</text>
</g>
<g class="stroked-text"><desc>6</desc>
<path d="M20.6335 21.2489
L20.6335 21.5391
" />
<path d="M20.6335 21.5391
L20.7061 21.6843
" />
<path d="M20.7061 21.6843
L20.7787 21.7569
" />
<path d="M20.7787 21.7569
L20.9964 21.9020
" />
<path d="M20.9964 21.9020
L21.2867 21.9746
" />
<path d="M21.2867 21.9746
L21.8672 21.9746
" />
<path d="M21.8672 21.9746
L22.0124 21.9020
" />
<path d="M22.0124 21.9020
L22.0850 21.8294
" />
<path d="M22.0850 21.8294
L22.1575 21.6843
" />
<path d="M22.1575 21.6843
L22.1575 21.3940
" />
<path d="M22.1575 21.3940
L22.0850 21.2489
" />
<path d="M22.0850 21.2489
L22.0124 21.1763
" />
<path d="M22.0124 21.1763
L21.8672 21.1037
" />
<path d="M21.8672 21.1037
L21.5044 21.1037
" />
<path d="M21.5044 21.1037
L21.3592 21.1763
" />
<path d="M21.3592 21.1763
L21.2867 21.2489
" />
<path d="M21.2867 21.2489
L21.2141 21.3940
" />
<path d="M21.2141 21.3940
L21.2141 21.6843
" />
<path d="M21.2141 21.6843
L21.2867 21.8294
" />
<path d="M21.2867 21.8294
L21.3592 21.9020
" />
<path d="M21.3592 21.9020
L21.5044 21.9746
" />
</g></g> 
</svg>
