<?xml version="1.0" standalone="no"?>
 <!DOCTYPE svg PUBLIC "-//W3C//DTD SVG 1.1//EN" 
 "http://www.w3.org/Graphics/SVG/1.1/DTD/svg11.dtd"> 
<svg
  xmlns:svg="http://www.w3.org/2000/svg"
  xmlns="http://www.w3.org/2000/svg"
  xmlns:xlink="http://www.w3.org/1999/xlink"
  xmlns:inkscape="http://www.inkscape.org/namespaces/inkscape"
  version="1.1"
  width="24.6888mm" height="11.2776mm" viewBox="0.0000 0.0000 24.6888 11.2776">
<title>SVG Image created as MESSFUEHLER_4_unit1.svg date 2026-08-09T11:54:32 </title>
  <desc>Image generated by Eeschema-SVG </desc>
<g style="fill:#000000; fill-opacity:1.0000;stroke:#000000; stroke-opacity:1.0000;
stroke-linecap:round; stroke-linejoin:round;"
 transform="translate(0 0) scale(1 1)">
<path style="fill:none; 
stroke:#840000; stroke-width:0.2540; stroke-opacity:1; 
stroke-linecap:round; stroke-linejoin:round;fill:none"
d="M 2.1844,3.8609
22.5044,3.8609
" /> 
<path style="fill:none; 
stroke:#840000; stroke-width:0.2540; stroke-opacity:1; 
stroke-linecap:round; stroke-linejoin:round;fill:none"
d="M 2.1844,10.2109
2.1844,3.8609
" /> 
<path style="fill:none; 
stroke:#840000; stroke-width:0.2540; stroke-opacity:1; 
stroke-linecap:round; stroke-linejoin:round;fill:none"
d="M 22.5044,3.8609
22.5044,10.2109
" /> 
<path style="fill:none; 
stroke:#840000; stroke-width:0.2540; stroke-opacity:1; 
stroke-linecap:round; stroke-linejoin:round;fill:none"
d="M 22.5044,10.2109
2.1844,10.2109
" /> 
</g>
<g style="fill:none; 
stroke:#840000; stroke-width:0.1524; stroke-opacity:1; 
stroke-linecap:round; stroke-linejoin:round;">
<path d="M4.7244 3.8609
L4.7244 1.3209
" />
</g>
<g style="fill:none; 
stroke:#A90000; stroke-width:0.1524; stroke-opacity:1; 
stroke-linecap:round; stroke-linejoin:round;">
<g transform="rotate(-90.000000 4.3688 2.5909)">
<text x="4.3688" y="2.5909"
textLength="1.6038" font-size="2.0320" lengthAdjust="spacingAndGlyphs"
text-anchor="middle" opacity="0" stroke-opacity="0">1</text>
</g>
<g class="stroked-text"><desc>1</desc>
<path d="M4.1743 2.1554
L4.1743 3.0263
" />
<path d="M4.1743 2.5908
L2.6503 2.5908
" />
<path d="M2.6503 2.5908
L2.8680 2.7360
" />
<path d="M2.8680 2.7360
L3.0132 2.8811
" />
<path d="M3.0132 2.8811
L3.0858 3.0263
" />
</g></g>
<g style="fill:none; 
stroke:#840000; stroke-width:0.1524; stroke-opacity:1; 
stroke-linecap:round; stroke-linejoin:round;">
<path d="M9.8044 3.8609
L9.8044 1.3209
" />
</g>
<g style="fill:none; 
stroke:#A90000; stroke-width:0.1524; stroke-opacity:1; 
stroke-linecap:round; stroke-linejoin:round;">
<g transform="rotate(-90.000000 9.4488 2.5909)">
<text x="9.4488" y="2.5909"
textLength="1.6038" font-size="2.0320" lengthAdjust="spacingAndGlyphs"
text-anchor="middle" opacity="0" stroke-opacity="0">2</text>
</g>
<g class="stroked-text"><desc>2</desc>
<path d="M7.8755 3.0263
L7.8029 2.9537
" />
<path d="M7.8029 2.9537
L7.7303 2.8086
" />
<path d="M7.7303 2.8086
L7.7303 2.4457
" />
<path d="M7.7303 2.4457
L7.8029 2.3006
" />
<path d="M7.8029 2.3006
L7.8755 2.2280
" />
<path d="M7.8755 2.2280
L8.0206 2.1554
" />
<path d="M8.0206 2.1554
L8.1658 2.1554
" />
<path d="M8.1658 2.1554
L8.3835 2.2280
" />
<path d="M8.3835 2.2280
L9.2543 3.0988
" />
<path d="M9.2543 3.0988
L9.2543 2.1554
" />
</g></g>
<g style="fill:none; 
stroke:#840000; stroke-width:0.1524; stroke-opacity:1; 
stroke-linecap:round; stroke-linejoin:round;">
<path d="M14.8844 3.8609
L14.8844 1.3209
" />
</g>
<g style="fill:none; 
stroke:#A90000; stroke-width:0.1524; stroke-opacity:1; 
stroke-linecap:round; stroke-linejoin:round;">
<g transform="rotate(-90.000000 14.5288 2.5909)">
<text x="14.5288" y="2.5909"
textLength="1.6038" font-size="2.0320" lengthAdjust="spacingAndGlyphs"
text-anchor="middle" opacity="0" stroke-opacity="0">3</text>
</g>
<g class="stroked-text"><desc>3</desc>
<path d="M12.8103 3.0988
L12.8103 2.1554
" />
<path d="M12.8103 2.1554
L13.3909 2.6634
" />
<path d="M13.3909 2.6634
L13.3909 2.4457
" />
<path d="M13.3909 2.4457
L13.4635 2.3006
" />
<path d="M13.4635 2.3006
L13.5360 2.2280
" />
<path d="M13.5360 2.2280
L13.6812 2.1554
" />
<path d="M13.6812 2.1554
L14.0440 2.1554
" />
<path d="M14.0440 2.1554
L14.1892 2.2280
" />
<path d="M14.1892 2.2280
L14.2618 2.3006
" />
<path d="M14.2618 2.3006
L14.3343 2.4457
" />
<path d="M14.3343 2.4457
L14.3343 2.8811
" />
<path d="M14.3343 2.8811
L14.2618 3.0263
" />
<path d="M14.2618 3.0263
L14.1892 3.0988
" />
</g></g>
<g style="fill:none; 
stroke:#840000; stroke-width:0.1524; stroke-opacity:1; 
stroke-linecap:round; stroke-linejoin:round;">
<path d="M19.9644 3.8609
L19.9644 1.3209
" />
</g>
<g style="fill:none; 
stroke:#A90000; stroke-width:0.1524; stroke-opacity:1; 
stroke-linecap:round; stroke-linejoin:round;">
<g transform="rotate(-90.000000 19.6088 2.5909)">
<text x="19.6088" y="2.5909"
textLength="1.6038" font-size="2.0320" lengthAdjust="spacingAndGlyphs"
text-anchor="middle" opacity="0" stroke-opacity="0">4</text>
</g>
<g class="stroked-text"><desc>4</desc>
<path d="M18.3983 2.3006
L19.4143 2.3006
" />
<path d="M17.8178 2.6634
L18.9063 3.0263
" />
<path d="M18.9063 3.0263
L18.9063 2.0828
" />
</g></g> 
</svg>
