<?xml version="1.0" standalone="no"?>
 <!DOCTYPE svg PUBLIC "-//W3C//DTD SVG 1.1//EN" 
 "http://www.w3.org/Graphics/SVG/1.1/DTD/svg11.dtd"> 
<svg
  xmlns:svg="http://www.w3.org/2000/svg"
  xmlns="http://www.w3.org/2000/svg"
  xmlns:xlink="http://www.w3.org/1999/xlink"
  xmlns:inkscape="http://www.inkscape.org/namespaces/inkscape"
  version="1.1"
  width="9.1948mm" height="13.1064mm" viewBox="0.0000 0.0000 9.1948 13.1064">
<title>SVG Image created as RELAIS_2-POL-UM_unit2.svg date 2026-08-09T11:54:34 </title>
  <desc>Image generated by Eeschema-SVG </desc>
<g style="fill:#000000; fill-opacity:1.0000;stroke:#000000; stroke-opacity:1.0000;
stroke-linecap:round; stroke-linejoin:round;"
 transform="translate(0 0) scale(1 1)">
<path style="fill:none; 
stroke:#840000; stroke-width:0.1524; stroke-opacity:1; 
stroke-linecap:round; stroke-linejoin:round;fill:none"
d="M 2.9655,8.0772
4.2355,8.0772
" /> 
<path style="fill:none; 
stroke:#840000; stroke-width:0.1524; stroke-opacity:1; 
stroke-linecap:round; stroke-linejoin:round;fill:none"
d="M 2.9655,9.0932
2.9655,8.0772
" /> 
<path style="fill:none; 
stroke:#840000; stroke-width:0.2540; stroke-opacity:1; 
stroke-linecap:round; stroke-linejoin:round;fill:none"
d="M 5.5055,4.0132
4.2355,8.2042
" /> 
<path style="fill:none; 
stroke:#840000; stroke-width:0.1524; stroke-opacity:1; 
stroke-linecap:round; stroke-linejoin:round;fill:none"
d="M 8.0455,9.0932
8.0455,8.0772
" /> 
</g>
<g style="fill:none; 
stroke:#840000; stroke-width:0.1524; stroke-opacity:1; 
stroke-linecap:round; stroke-linejoin:round;">
<path d="M5.5055 4.0132
L5.5055 1.4732
" />
</g>
<g style="fill:none; 
stroke:#A90000; stroke-width:0.1524; stroke-opacity:1; 
stroke-linecap:round; stroke-linejoin:round;">
<g transform="rotate(-90.000000 5.1499 2.7432)">
<text x="5.1499" y="2.7432"
textLength="3.0552" font-size="2.0320" lengthAdjust="spacingAndGlyphs"
text-anchor="middle" opacity="0" stroke-opacity="0">21</text>
</g>
<g class="stroked-text"><desc>21</desc>
<path d="M3.5766 3.9043
L3.5040 3.8317
" />
<path d="M3.5040 3.8317
L3.4314 3.6866
" />
<path d="M3.4314 3.6866
L3.4314 3.3237
" />
<path d="M3.4314 3.3237
L3.5040 3.1786
" />
<path d="M3.5040 3.1786
L3.5766 3.1060
" />
<path d="M3.5766 3.1060
L3.7217 3.0334
" />
<path d="M3.7217 3.0334
L3.8669 3.0334
" />
<path d="M3.8669 3.0334
L4.0846 3.1060
" />
<path d="M4.0846 3.1060
L4.9554 3.9768
" />
<path d="M4.9554 3.9768
L4.9554 3.0334
" />
<path d="M4.9554 1.5820
L4.9554 2.4529
" />
<path d="M4.9554 2.0174
L3.4314 2.0174
" />
<path d="M3.4314 2.0174
L3.6491 2.1626
" />
<path d="M3.6491 2.1626
L3.7943 2.3077
" />
<path d="M3.7943 2.3077
L3.8669 2.4529
" />
</g></g>
<g style="fill:none; 
stroke:#840000; stroke-width:0.1524; stroke-opacity:1; 
stroke-linecap:round; stroke-linejoin:round;">
<path d="M2.9655 9.0932
L2.9655 11.6332
" />
</g>
<g style="fill:none; 
stroke:#A90000; stroke-width:0.1524; stroke-opacity:1; 
stroke-linecap:round; stroke-linejoin:round;">
<g transform="rotate(-90.000000 2.6099 10.3632)">
<text x="2.6099" y="10.3632"
textLength="3.0552" font-size="2.0320" lengthAdjust="spacingAndGlyphs"
text-anchor="middle" opacity="0" stroke-opacity="0">22</text>
</g>
<g class="stroked-text"><desc>22</desc>
<path d="M1.0366 11.5243
L0.9640 11.4517
" />
<path d="M0.9640 11.4517
L0.8915 11.3066
" />
<path d="M0.8915 11.3066
L0.8915 10.9437
" />
<path d="M0.8915 10.9437
L0.9640 10.7986
" />
<path d="M0.9640 10.7986
L1.0366 10.7260
" />
<path d="M1.0366 10.7260
L1.1817 10.6534
" />
<path d="M1.1817 10.6534
L1.3269 10.6534
" />
<path d="M1.3269 10.6534
L1.5446 10.7260
" />
<path d="M1.5446 10.7260
L2.4154 11.5968
" />
<path d="M2.4154 11.5968
L2.4154 10.6534
" />
<path d="M1.0366 10.0729
L0.9640 10.0003
" />
<path d="M0.9640 10.0003
L0.8915 9.8552
" />
<path d="M0.8915 9.8552
L0.8915 9.4923
" />
<path d="M0.8915 9.4923
L0.9640 9.3472
" />
<path d="M0.9640 9.3472
L1.0366 9.2746
" />
<path d="M1.0366 9.2746
L1.1817 9.2020
" />
<path d="M1.1817 9.2020
L1.3269 9.2020
" />
<path d="M1.3269 9.2020
L1.5446 9.2746
" />
<path d="M1.5446 9.2746
L2.4154 10.1454
" />
<path d="M2.4154 10.1454
L2.4154 9.2020
" />
</g></g>
<g style="fill:none; 
stroke:#840000; stroke-width:0.1524; stroke-opacity:1; 
stroke-linecap:round; stroke-linejoin:round;">
<path d="M8.0455 9.0932
L8.0455 11.6332
" />
</g>
<g style="fill:none; 
stroke:#A90000; stroke-width:0.1524; stroke-opacity:1; 
stroke-linecap:round; stroke-linejoin:round;">
<g transform="rotate(-90.000000 7.6899 10.3632)">
<text x="7.6899" y="10.3632"
textLength="3.0552" font-size="2.0320" lengthAdjust="spacingAndGlyphs"
text-anchor="middle" opacity="0" stroke-opacity="0">24</text>
</g>
<g class="stroked-text"><desc>24</desc>
<path d="M6.1166 11.5243
L6.0440 11.4517
" />
<path d="M6.0440 11.4517
L5.9714 11.3066
" />
<path d="M5.9714 11.3066
L5.9714 10.9437
" />
<path d="M5.9714 10.9437
L6.0440 10.7986
" />
<path d="M6.0440 10.7986
L6.1166 10.7260
" />
<path d="M6.1166 10.7260
L6.2617 10.6534
" />
<path d="M6.2617 10.6534
L6.4069 10.6534
" />
<path d="M6.4069 10.6534
L6.6246 10.7260
" />
<path d="M6.6246 10.7260
L7.4954 11.5968
" />
<path d="M7.4954 11.5968
L7.4954 10.6534
" />
<path d="M6.4794 9.3472
L7.4954 9.3472
" />
<path d="M5.8989 9.7100
L6.9874 10.0729
" />
<path d="M6.9874 10.0729
L6.9874 9.1294
" />
</g></g> 
</svg>
