<?xml version="1.0" standalone="no"?>
 <!DOCTYPE svg PUBLIC "-//W3C//DTD SVG 1.1//EN" 
 "http://www.w3.org/Graphics/SVG/1.1/DTD/svg11.dtd"> 
<svg
  xmlns:svg="http://www.w3.org/2000/svg"
  xmlns="http://www.w3.org/2000/svg"
  xmlns:xlink="http://www.w3.org/1999/xlink"
  xmlns:inkscape="http://www.inkscape.org/namespaces/inkscape"
  version="1.1"
  width="6.2738mm" height="13.8176mm" viewBox="0.0000 0.0000 6.2738 13.8176">
<title>SVG Image created as KLEMME-2_50-BRUECKE_unit49.svg date 2026-08-09T11:54:31 </title>
  <desc>Image generated by Eeschema-SVG </desc>
<g style="fill:#000000; fill-opacity:1.0000;stroke:#000000; stroke-opacity:1.0000;
stroke-linecap:round; stroke-linejoin:round;"
 transform="translate(0 0) scale(1 1)">
<path style="fill:none; 
stroke:#840000; stroke-width:0.1524; stroke-opacity:1; 
stroke-linecap:round; stroke-linejoin:round;fill:none"
d="M 0.5969,4.3688
0.5969,5.6388
" /> 
<path style="fill:none; 
stroke:#840000; stroke-width:0.1524; stroke-opacity:1; 
stroke-linecap:round; stroke-linejoin:round;fill:none"
d="M 0.5969,4.3688
1.8669,4.3688
" /> 
<path style="fill:none; 
stroke:#840000; stroke-width:0.1524; stroke-opacity:1; 
stroke-linecap:round; stroke-linejoin:round;fill:none"
d="M 0.5969,5.6388
0.5969,6.9088
" /> 
<path style="fill:none; 
stroke:#840000; stroke-width:0.1524; stroke-opacity:1; 
stroke-linecap:round; stroke-linejoin:round;fill:none"
d="M 0.5969,5.6388
1.8669,4.3688
" /> 
<path style="fill:none; 
stroke:#840000; stroke-width:0.1524; stroke-opacity:1; 
stroke-linecap:round; stroke-linejoin:round;fill:none"
d="M 0.5969,5.6388
1.8669,6.9088
" /> 
<path style="fill:none; 
stroke:#840000; stroke-width:0.1524; stroke-opacity:1; 
stroke-linecap:round; stroke-linejoin:round;fill:none"
d="M 0.5969,6.9088
0.5969,9.4488
" /> 
<path style="fill:none; 
stroke:#840000; stroke-width:0.1524; stroke-opacity:1; 
stroke-linecap:round; stroke-linejoin:round;fill:none"
d="M 0.5969,6.9088
1.8669,6.9088
" /> 
<path style="fill:none; 
stroke:#840000; stroke-width:0.1524; stroke-opacity:1; 
stroke-linecap:round; stroke-linejoin:round;fill:none"
d="M 0.5969,6.9088
1.8669,6.9088
" /> 
<path style="fill:none; 
stroke:#840000; stroke-width:0.1524; stroke-opacity:1; 
stroke-linecap:round; stroke-linejoin:round;fill:none"
d="M 0.5969,9.4488
4.4069,9.4488
" /> 
<path style="fill:none; 
stroke:#840000; stroke-width:0.1524; stroke-opacity:1; 
stroke-linecap:round; stroke-linejoin:round;fill:none"
d="M 1.8669,4.3688
5.6769,4.3688
" /> 
<path style="fill:none; 
stroke:#840000; stroke-width:0.1524; stroke-opacity:1; 
stroke-linecap:round; stroke-linejoin:round;fill:none"
d="M 1.8669,6.9088
4.4069,6.9088
" /> 
<path style="fill:none; 
stroke:#840000; stroke-width:0.1524; stroke-opacity:1; 
stroke-linecap:round; stroke-linejoin:round;fill:none"
d="M 1.8669,6.9088
4.4069,6.9088
" /> 
<path style="fill:none; 
stroke:#840000; stroke-width:0.1524; stroke-opacity:1; 
stroke-linecap:round; stroke-linejoin:round;fill:none"
d="M 4.4069,6.9088
5.6769,6.9088
" /> 
<path style="fill:none; 
stroke:#840000; stroke-width:0.1524; stroke-opacity:1; 
stroke-linecap:round; stroke-linejoin:round;fill:none"
d="M 4.4069,6.9088
5.6769,6.9088
" /> 
<path style="fill:none; 
stroke:#840000; stroke-width:0.1524; stroke-opacity:1; 
stroke-linecap:round; stroke-linejoin:round;fill:none"
d="M 4.4069,9.4488
5.6769,9.4488
" /> 
<path style="fill:none; 
stroke:#840000; stroke-width:0.1524; stroke-opacity:1; 
stroke-linecap:round; stroke-linejoin:round;fill:none"
d="M 5.6769,4.3688
5.6769,6.9088
" /> 
<path style="fill:none; 
stroke:#840000; stroke-width:0.1524; stroke-opacity:1; 
stroke-linecap:round; stroke-linejoin:round;fill:none"
d="M 5.6769,6.9088
5.6769,8.1788
" /> 
<path style="fill:none; 
stroke:#840000; stroke-width:0.1524; stroke-opacity:1; 
stroke-linecap:round; stroke-linejoin:round;fill:none"
d="M 5.6769,8.1788
4.4069,6.9088
" /> 
<path style="fill:none; 
stroke:#840000; stroke-width:0.1524; stroke-opacity:1; 
stroke-linecap:round; stroke-linejoin:round;fill:none"
d="M 5.6769,8.1788
4.4069,9.4488
" /> 
<path style="fill:none; 
stroke:#840000; stroke-width:0.1524; stroke-opacity:1; 
stroke-linecap:round; stroke-linejoin:round;fill:none"
d="M 5.6769,8.1788
5.6769,9.4488
" /> 
</g>
<g style="fill:none; 
stroke:#840000; stroke-width:0.1524; stroke-opacity:1; 
stroke-linecap:round; stroke-linejoin:round;">
<path d="M3.1369 4.3688
L3.1369 1.8288
" />
</g>
<g style="fill:none; 
stroke:#A90000; stroke-width:0.1524; stroke-opacity:1; 
stroke-linecap:round; stroke-linejoin:round;">
<g transform="rotate(-90.000000 2.7813 3.0988)">
<text x="2.7813" y="3.0988"
textLength="3.7809" font-size="2.0320" lengthAdjust="spacingAndGlyphs"
text-anchor="middle" opacity="0" stroke-opacity="0">8.1</text>
</g>
<g class="stroked-text"><desc>8.1</desc>
<path d="M1.7160 4.3324
L1.6434 4.4775
" />
<path d="M1.6434 4.4775
L1.5708 4.5501
" />
<path d="M1.5708 4.5501
L1.4257 4.6227
" />
<path d="M1.4257 4.6227
L1.3531 4.6227
" />
<path d="M1.3531 4.6227
L1.2080 4.5501
" />
<path d="M1.2080 4.5501
L1.1354 4.4775
" />
<path d="M1.1354 4.4775
L1.0628 4.3324
" />
<path d="M1.0628 4.3324
L1.0628 4.0421
" />
<path d="M1.0628 4.0421
L1.1354 3.8970
" />
<path d="M1.1354 3.8970
L1.2080 3.8244
" />
<path d="M1.2080 3.8244
L1.3531 3.7518
" />
<path d="M1.3531 3.7518
L1.4257 3.7518
" />
<path d="M1.4257 3.7518
L1.5708 3.8244
" />
<path d="M1.5708 3.8244
L1.6434 3.8970
" />
<path d="M1.6434 3.8970
L1.7160 4.0421
" />
<path d="M1.7160 4.0421
L1.7160 4.3324
" />
<path d="M1.7160 4.3324
L1.7885 4.4775
" />
<path d="M1.7885 4.4775
L1.8611 4.5501
" />
<path d="M1.8611 4.5501
L2.0063 4.6227
" />
<path d="M2.0063 4.6227
L2.2965 4.6227
" />
<path d="M2.2965 4.6227
L2.4417 4.5501
" />
<path d="M2.4417 4.5501
L2.5143 4.4775
" />
<path d="M2.5143 4.4775
L2.5868 4.3324
" />
<path d="M2.5868 4.3324
L2.5868 4.0421
" />
<path d="M2.5868 4.0421
L2.5143 3.8970
" />
<path d="M2.5143 3.8970
L2.4417 3.8244
" />
<path d="M2.4417 3.8244
L2.2965 3.7518
" />
<path d="M2.2965 3.7518
L2.0063 3.7518
" />
<path d="M2.0063 3.7518
L1.8611 3.8244
" />
<path d="M1.8611 3.8244
L1.7885 3.8970
" />
<path d="M1.7885 3.8970
L1.7160 4.0421
" />
<path d="M2.4417 3.0987
L2.5143 3.0261
" />
<path d="M2.5143 3.0261
L2.5868 3.0987
" />
<path d="M2.5868 3.0987
L2.5143 3.1713
" />
<path d="M2.5143 3.1713
L2.4417 3.0987
" />
<path d="M2.4417 3.0987
L2.5868 3.0987
" />
<path d="M2.5868 1.5747
L2.5868 2.4456
" />
<path d="M2.5868 2.0101
L1.0628 2.0101
" />
<path d="M1.0628 2.0101
L1.2805 2.1553
" />
<path d="M1.2805 2.1553
L1.4257 2.3004
" />
<path d="M1.4257 2.3004
L1.4983 2.4456
" />
</g></g>
<g style="fill:none; 
stroke:#840000; stroke-width:0.1524; stroke-opacity:1; 
stroke-linecap:round; stroke-linejoin:round;">
<path d="M3.1369 9.4488
L3.1369 11.9888
" />
</g>
<g style="fill:none; 
stroke:#A90000; stroke-width:0.1524; stroke-opacity:1; 
stroke-linecap:round; stroke-linejoin:round;">
<g transform="rotate(-90.000000 2.7813 10.7188)">
<text x="2.7813" y="10.7188"
textLength="3.7809" font-size="2.0320" lengthAdjust="spacingAndGlyphs"
text-anchor="middle" opacity="0" stroke-opacity="0">8.2</text>
</g>
<g class="stroked-text"><desc>8.2</desc>
<path d="M1.7160 11.9524
L1.6434 12.0975
" />
<path d="M1.6434 12.0975
L1.5708 12.1701
" />
<path d="M1.5708 12.1701
L1.4257 12.2427
" />
<path d="M1.4257 12.2427
L1.3531 12.2427
" />
<path d="M1.3531 12.2427
L1.2080 12.1701
" />
<path d="M1.2080 12.1701
L1.1354 12.0975
" />
<path d="M1.1354 12.0975
L1.0628 11.9524
" />
<path d="M1.0628 11.9524
L1.0628 11.6621
" />
<path d="M1.0628 11.6621
L1.1354 11.5170
" />
<path d="M1.1354 11.5170
L1.2080 11.4444
" />
<path d="M1.2080 11.4444
L1.3531 11.3718
" />
<path d="M1.3531 11.3718
L1.4257 11.3718
" />
<path d="M1.4257 11.3718
L1.5708 11.4444
" />
<path d="M1.5708 11.4444
L1.6434 11.5170
" />
<path d="M1.6434 11.5170
L1.7160 11.6621
" />
<path d="M1.7160 11.6621
L1.7160 11.9524
" />
<path d="M1.7160 11.9524
L1.7885 12.0975
" />
<path d="M1.7885 12.0975
L1.8611 12.1701
" />
<path d="M1.8611 12.1701
L2.0063 12.2427
" />
<path d="M2.0063 12.2427
L2.2965 12.2427
" />
<path d="M2.2965 12.2427
L2.4417 12.1701
" />
<path d="M2.4417 12.1701
L2.5143 12.0975
" />
<path d="M2.5143 12.0975
L2.5868 11.9524
" />
<path d="M2.5868 11.9524
L2.5868 11.6621
" />
<path d="M2.5868 11.6621
L2.5143 11.5170
" />
<path d="M2.5143 11.5170
L2.4417 11.4444
" />
<path d="M2.4417 11.4444
L2.2965 11.3718
" />
<path d="M2.2965 11.3718
L2.0063 11.3718
" />
<path d="M2.0063 11.3718
L1.8611 11.4444
" />
<path d="M1.8611 11.4444
L1.7885 11.5170
" />
<path d="M1.7885 11.5170
L1.7160 11.6621
" />
<path d="M2.4417 10.7187
L2.5143 10.6461
" />
<path d="M2.5143 10.6461
L2.5868 10.7187
" />
<path d="M2.5868 10.7187
L2.5143 10.7913
" />
<path d="M2.5143 10.7913
L2.4417 10.7187
" />
<path d="M2.4417 10.7187
L2.5868 10.7187
" />
<path d="M1.2080 10.0656
L1.1354 9.9930
" />
<path d="M1.1354 9.9930
L1.0628 9.8479
" />
<path d="M1.0628 9.8479
L1.0628 9.4850
" />
<path d="M1.0628 9.4850
L1.1354 9.3399
" />
<path d="M1.1354 9.3399
L1.2080 9.2673
" />
<path d="M1.2080 9.2673
L1.3531 9.1947
" />
<path d="M1.3531 9.1947
L1.4983 9.1947
" />
<path d="M1.4983 9.1947
L1.7160 9.2673
" />
<path d="M1.7160 9.2673
L2.5868 10.1381
" />
<path d="M2.5868 10.1381
L2.5868 9.1947
" />
</g></g> 
</svg>
